<svg id="visual" viewBox="0 0 900 600" width="900" height="600" xmlns="http://www.w3.org/2000/svg" xmlns:xlink="http://www.w3.org/1999/xlink" version="1.1"><rect x="0" y="0" width="900" height="600" fill="#EFEFEF"></rect><defs><linearGradient id="grad1_0" x1="33.3%" y1="0%" x2="100%" y2="100%"><stop offset="20%" stop-color="#3674b5" stop-opacity="1"></stop><stop offset="80%" stop-color="#3674b5" stop-opacity="1"></stop></linearGradient></defs><defs><linearGradient id="grad1_1" x1="33.3%" y1="0%" x2="100%" y2="100%"><stop offset="20%" stop-color="#3674b5" stop-opacity="1"></stop><stop offset="80%" stop-color="#5984bd" stop-opacity="1"></stop></linearGradient></defs><defs><linearGradient id="grad1_2" x1="33.3%" y1="0%" x2="100%" y2="100%"><stop offset="20%" stop-color="#7595c6" stop-opacity="1"></stop><stop offset="80%" stop-color="#5984bd" stop-opacity="1"></stop></linearGradient></defs><defs><linearGradient id="grad1_3" x1="33.3%" y1="0%" x2="100%" y2="100%"><stop offset="20%" stop-color="#7595c6" stop-opacity="1"></stop><stop offset="80%" stop-color="#8fa6ce" stop-opacity="1"></stop></linearGradient></defs><defs><linearGradient id="grad1_4" x1="33.3%" y1="0%" x2="100%" y2="100%"><stop offset="20%" stop-color="#a7b8d6" stop-opacity="1"></stop><stop offset="80%" stop-color="#8fa6ce" stop-opacity="1"></stop></linearGradient></defs><defs><linearGradient id="grad1_5" x1="33.3%" y1="0%" x2="100%" y2="100%"><stop offset="20%" stop-color="#a7b8d6" stop-opacity="1"></stop><stop offset="80%" stop-color="#bfcadf" stop-opacity="1"></stop></linearGradient></defs><defs><linearGradient id="grad1_6" x1="33.3%" y1="0%" x2="100%" y2="100%"><stop offset="20%" stop-color="#d7dce7" stop-opacity="1"></stop><stop offset="80%" stop-color="#bfcadf" stop-opacity="1"></stop></linearGradient></defs><defs><linearGradient id="grad1_7" x1="33.3%" y1="0%" x2="100%" y2="100%"><stop offset="20%" stop-color="#d7dce7" stop-opacity="1"></stop><stop offset="80%" stop-color="#efefef" stop-opacity="1"></stop></linearGradient></defs><defs><linearGradient id="grad2_0" x1="0%" y1="0%" x2="66.7%" y2="100%"><stop offset="20%" stop-color="#3674b5" stop-opacity="1"></stop><stop offset="80%" stop-color="#3674b5" stop-opacity="1"></stop></linearGradient></defs><defs><linearGradient id="grad2_1" x1="0%" y1="0%" x2="66.7%" y2="100%"><stop offset="20%" stop-color="#5984bd" stop-opacity="1"></stop><stop offset="80%" stop-color="#3674b5" stop-opacity="1"></stop></linearGradient></defs><defs><linearGradient id="grad2_2" x1="0%" y1="0%" x2="66.7%" y2="100%"><stop offset="20%" stop-color="#5984bd" stop-opacity="1"></stop><stop offset="80%" stop-color="#7595c6" stop-opacity="1"></stop></linearGradient></defs><defs><linearGradient id="grad2_3" x1="0%" y1="0%" x2="66.7%" y2="100%"><stop offset="20%" stop-color="#8fa6ce" stop-opacity="1"></stop><stop offset="80%" stop-color="#7595c6" stop-opacity="1"></stop></linearGradient></defs><defs><linearGradient id="grad2_4" x1="0%" y1="0%" x2="66.7%" y2="100%"><stop offset="20%" stop-color="#8fa6ce" stop-opacity="1"></stop><stop offset="80%" stop-color="#a7b8d6" stop-opacity="1"></stop></linearGradient></defs><defs><linearGradient id="grad2_5" x1="0%" y1="0%" x2="66.7%" y2="100%"><stop offset="20%" stop-color="#bfcadf" stop-opacity="1"></stop><stop offset="80%" stop-color="#a7b8d6" stop-opacity="1"></stop></linearGradient></defs><defs><linearGradient id="grad2_6" x1="0%" y1="0%" x2="66.7%" y2="100%"><stop offset="20%" stop-color="#bfcadf" stop-opacity="1"></stop><stop offset="80%" stop-color="#d7dce7" stop-opacity="1"></stop></linearGradient></defs><defs><linearGradient id="grad2_7" x1="0%" y1="0%" x2="66.7%" y2="100%"><stop offset="20%" stop-color="#efefef" stop-opacity="1"></stop><stop offset="80%" stop-color="#d7dce7" stop-opacity="1"></stop></linearGradient></defs><g transform="translate(900, 0)"><path d="M0 486.7C-70.9 487.6 -141.8 488.5 -186.3 449.7C-230.7 410.9 -248.7 332.3 -281.4 281.4C-314.1 230.5 -361.5 207.2 -398.2 164.9C-434.9 122.6 -460.8 61.3 -486.7 0L0 0Z" fill="#e3e6eb"></path><path d="M0 425.9C-62 426.7 -124.1 427.5 -163 393.5C-201.9 359.5 -217.6 290.8 -246.2 246.2C-274.9 201.7 -316.3 181.3 -348.4 144.3C-380.5 107.3 -403.2 53.7 -425.9 0L0 0Z" fill="#cbd3e3"></path><path d="M0 365.1C-53.2 365.7 -106.4 366.4 -139.7 337.3C-173 308.2 -186.5 249.3 -211.1 211.1C-235.6 172.9 -271.1 155.4 -298.6 123.7C-326.1 92 -345.6 46 -365.1 0L0 0Z" fill="#b3c1db"></path><path d="M0 304.2C-44.3 304.8 -88.6 305.3 -116.4 281.1C-144.2 256.8 -155.5 207.7 -175.9 175.9C-196.3 144.1 -226 129.5 -248.9 103.1C-271.8 76.6 -288 38.3 -304.2 0L0 0Z" fill="#9bafd2"></path><path d="M0 243.4C-35.5 243.8 -70.9 244.3 -93.1 224.8C-115.4 205.4 -124.4 166.2 -140.7 140.7C-157.1 115.3 -180.8 103.6 -199.1 82.5C-217.4 61.3 -230.4 30.7 -243.4 0L0 0Z" fill="#829eca"></path><path d="M0 182.5C-26.6 182.9 -53.2 183.2 -69.9 168.6C-86.5 154.1 -93.3 124.6 -105.5 105.5C-117.8 86.4 -135.6 77.7 -149.3 61.9C-163.1 46 -172.8 23 -182.5 0L0 0Z" fill="#678dc2"></path><path d="M0 121.7C-17.7 121.9 -35.5 122.1 -46.6 112.4C-57.7 102.7 -62.2 83.1 -70.4 70.4C-78.5 57.6 -90.4 51.8 -99.5 41.2C-108.7 30.7 -115.2 15.3 -121.7 0L0 0Z" fill="#497cb9"></path><path d="M0 60.8C-8.9 61 -17.7 61.1 -23.3 56.2C-28.8 51.4 -31.1 41.5 -35.2 35.2C-39.3 28.8 -45.2 25.9 -49.8 20.6C-54.4 15.3 -57.6 7.7 -60.8 0L0 0Z" fill="#3674b5"></path></g><g transform="translate(0, 600)"><path d="M0 -486.7C48.1 -439.8 96.2 -392.8 154.6 -373.2C213 -353.7 281.7 -361.6 335.2 -335.2C388.7 -308.7 427 -247.9 449.7 -186.3C472.4 -124.7 479.6 -62.3 486.7 0L0 0Z" fill="#e3e6eb"></path><path d="M0 -425.9C42.1 -384.8 84.2 -343.7 135.3 -326.6C186.4 -309.5 246.5 -316.4 293.3 -293.3C340.1 -270.1 373.6 -216.9 393.5 -163C413.4 -109.1 419.6 -54.5 425.9 0L0 0Z" fill="#cbd3e3"></path><path d="M0 -365.1C36.1 -329.8 72.2 -294.6 116 -279.9C159.7 -265.3 211.3 -271.2 251.4 -251.4C291.5 -231.5 320.2 -185.9 337.3 -139.7C354.3 -93.5 359.7 -46.8 365.1 0L0 0Z" fill="#b3c1db"></path><path d="M0 -304.2C30.1 -274.9 60.1 -245.5 96.6 -233.3C133.1 -221.1 176 -226 209.5 -209.5C242.9 -192.9 266.9 -154.9 281.1 -116.4C295.3 -77.9 299.7 -39 304.2 0L0 0Z" fill="#9bafd2"></path><path d="M0 -243.4C24.1 -219.9 48.1 -196.4 77.3 -186.6C106.5 -176.9 140.8 -180.8 167.6 -167.6C194.3 -154.4 213.5 -123.9 224.8 -93.1C236.2 -62.3 239.8 -31.2 243.4 0L0 0Z" fill="#829eca"></path><path d="M0 -182.5C18 -164.9 36.1 -147.3 58 -140C79.9 -132.6 105.6 -135.6 125.7 -125.7C145.7 -115.8 160.1 -92.9 168.6 -69.9C177.2 -46.8 179.8 -23.4 182.5 0L0 0Z" fill="#678dc2"></path><path d="M0 -121.7C12 -109.9 24.1 -98.2 38.7 -93.3C53.2 -88.4 70.4 -90.4 83.8 -83.8C97.2 -77.2 106.7 -62 112.4 -46.6C118.1 -31.2 119.9 -15.6 121.7 0L0 0Z" fill="#497cb9"></path><path d="M0 -60.8C6 -55 12 -49.1 19.3 -46.7C26.6 -44.2 35.2 -45.2 41.9 -41.9C48.6 -38.6 53.4 -31 56.2 -23.3C59.1 -15.6 59.9 -7.8 60.8 0L0 0Z" fill="#3674b5"></path></g></svg>