<svg id="visual" viewBox="0 0 900 600" width="900" height="600" xmlns="http://www.w3.org/2000/svg" xmlns:xlink="http://www.w3.org/1999/xlink" version="1.1"><path d="M0 31L75 29C150 27 300 23 450 23C600 23 750 27 825 29L900 31L900 0L825 0C750 0 600 0 450 0C300 0 150 0 75 0L0 0Z" fill="#a1e3f9"></path><path d="M0 49L75 49C150 49 300 49 450 51C600 53 750 57 825 59L900 61L900 29L825 27C750 25 600 21 450 21C300 21 150 25 75 27L0 29Z" fill="#a9e4f8"></path><path d="M0 103L75 99C150 95 300 87 450 87C600 87 750 95 825 99L900 103L900 59L825 57C750 55 600 51 450 49C300 47 150 47 75 47L0 47Z" fill="#b1e5f7"></path><path d="M0 121L75 118C150 115 300 109 450 110C600 111 750 119 825 123L900 127L900 101L825 97C750 93 600 85 450 85C300 85 150 93 75 97L0 101Z" fill="#b9e6f6"></path><path d="M0 169L75 163C150 157 300 145 450 146C600 147 750 161 825 168L900 175L900 125L825 121C750 117 600 109 450 108C300 107 150 113 75 116L0 119Z" fill="#c0e7f5"></path><path d="M0 217L75 209C150 201 300 185 450 181C600 177 750 185 825 189L900 193L900 173L825 166C750 159 600 145 450 144C300 143 150 155 75 161L0 167Z" fill="#c7e8f4"></path><path d="M0 283L75 278C150 273 300 263 450 269C600 275 750 297 825 308L900 319L900 191L825 187C750 183 600 175 450 179C300 183 150 199 75 207L0 215Z" fill="#ceeaf4"></path><path d="M0 301L75 298C150 295 300 289 450 298C600 307 750 331 825 343L900 355L900 317L825 306C750 295 600 273 450 267C300 261 150 271 75 276L0 281Z" fill="#d5ebf3"></path><path d="M0 439L75 435C150 431 300 423 450 419C600 415 750 415 825 415L900 415L900 353L825 341C750 329 600 305 450 296C300 287 150 293 75 296L0 299Z" fill="#dcecf2"></path><path d="M0 481L75 479C150 477 300 473 450 470C600 467 750 465 825 464L900 463L900 413L825 413C750 413 600 413 450 417C300 421 150 429 75 433L0 437Z" fill="#e2edf1"></path><path d="M0 553L75 556C150 559 300 565 450 561C600 557 750 543 825 536L900 529L900 461L825 462C750 463 600 465 450 468C300 471 150 475 75 477L0 479Z" fill="#e9eef0"></path><path d="M0 601L75 601C150 601 300 601 450 601C600 601 750 601 825 601L900 601L900 527L825 534C750 541 600 555 450 559C300 563 150 557 75 554L0 551Z" fill="#efefef"></path></svg>