<svg id="visual" viewBox="0 0 900 600" width="900" height="600" xmlns="http://www.w3.org/2000/svg" xmlns:xlink="http://www.w3.org/1999/xlink" version="1.1"><path d="M0 151L37.5 158C75 165 150 179 225 169C300 159 375 125 450 101C525 77 600 63 675 54C750 45 825 41 862.5 39L900 37L900 0L862.5 0C825 0 750 0 675 0C600 0 525 0 450 0C375 0 300 0 225 0C150 0 75 0 37.5 0L0 0Z" fill="#ff817d"></path><path d="M0 433L37.5 431C75 429 150 425 225 397C300 369 375 317 450 280C525 243 600 221 675 233C750 245 825 291 862.5 314L900 337L900 35L862.5 37C825 39 750 43 675 52C600 61 525 75 450 99C375 123 300 157 225 167C150 177 75 163 37.5 156L0 149Z" fill="#ff625e"></path><path d="M0 433L37.5 447C75 461 150 489 225 496C300 503 375 489 450 484C525 479 600 483 675 487C750 491 825 495 862.5 497L900 499L900 335L862.5 312C825 289 750 243 675 231C600 219 525 241 450 278C375 315 300 367 225 395C150 423 75 427 37.5 429L0 431Z" fill="#ff3b3f"></path><path d="M0 511L37.5 522C75 533 150 555 225 556C300 557 375 537 450 523C525 509 600 501 675 514C750 527 825 561 862.5 578L900 595L900 497L862.5 495C825 493 750 489 675 485C600 481 525 477 450 482C375 487 300 501 225 494C150 487 75 459 37.5 445L0 431Z" fill="#df3035"></path><path d="M0 601L37.5 601C75 601 150 601 225 601C300 601 375 601 450 601C525 601 600 601 675 601C750 601 825 601 862.5 601L900 601L900 593L862.5 576C825 559 750 525 675 512C600 499 525 507 450 521C375 535 300 555 225 554C150 553 75 531 37.5 520L0 509Z" fill="#c0252c"></path></svg>