<svg id="visual" viewBox="0 0 960 540" width="960" height="540" xmlns="http://www.w3.org/2000/svg" xmlns:xlink="http://www.w3.org/1999/xlink" version="1.1"><rect x="0" y="0" width="960" height="540" fill="#F2E1C2"></rect><path d="M0 431L26.7 419.5C53.3 408 106.7 385 160 382.5C213.3 380 266.7 398 320 406.8C373.3 415.7 426.7 415.3 480 418.5C533.3 421.7 586.7 428.3 640 421C693.3 413.7 746.7 392.3 800 388.5C853.3 384.7 906.7 398.3 933.3 405.2L960 412L960 541L933.3 541C906.7 541 853.3 541 800 541C746.7 541 693.3 541 640 541C586.7 541 533.3 541 480 541C426.7 541 373.3 541 320 541C266.7 541 213.3 541 160 541C106.7 541 53.3 541 26.7 541L0 541Z" fill="#f25f29"></path><path d="M0 417L26.7 422.8C53.3 428.7 106.7 440.3 160 447.7C213.3 455 266.7 458 320 457.8C373.3 457.7 426.7 454.3 480 451.2C533.3 448 586.7 445 640 437.3C693.3 429.7 746.7 417.3 800 417.8C853.3 418.3 906.7 431.7 933.3 438.3L960 445L960 541L933.3 541C906.7 541 853.3 541 800 541C746.7 541 693.3 541 640 541C586.7 541 533.3 541 480 541C426.7 541 373.3 541 320 541C266.7 541 213.3 541 160 541C106.7 541 53.3 541 26.7 541L0 541Z" fill="#ac3829"></path><path d="M0 468L26.7 469.8C53.3 471.7 106.7 475.3 160 472.5C213.3 469.7 266.7 460.3 320 456.3C373.3 452.3 426.7 453.7 480 451.8C533.3 450 586.7 445 640 447.8C693.3 450.7 746.7 461.3 800 463.3C853.3 465.3 906.7 458.7 933.3 455.3L960 452L960 541L933.3 541C906.7 541 853.3 541 800 541C746.7 541 693.3 541 640 541C586.7 541 533.3 541 480 541C426.7 541 373.3 541 320 541C266.7 541 213.3 541 160 541C106.7 541 53.3 541 26.7 541L0 541Z" fill="#651a1d"></path><path d="M0 514L26.7 510.5C53.3 507 106.7 500 160 496.5C213.3 493 266.7 493 320 496.7C373.3 500.3 426.7 507.7 480 506.8C533.3 506 586.7 497 640 497C693.3 497 746.7 506 800 507.3C853.3 508.7 906.7 502.3 933.3 499.2L960 496L960 541L933.3 541C906.7 541 853.3 541 800 541C746.7 541 693.3 541 640 541C586.7 541 533.3 541 480 541C426.7 541 373.3 541 320 541C266.7 541 213.3 541 160 541C106.7 541 53.3 541 26.7 541L0 541Z" fill="#260101"></path></svg>